<svg xmlns="http://www.w3.org/2000/svg" viewBox="0 0 800 600" fill="none">
  <rect width="800" height="600" fill="transparent"/>
  <g stroke="#60a5fa" stroke-width="2">
    <rect x="50" y="50" width="700" height="500"/>
    <line x1="250" y1="50" x2="250" y2="300"/>
    <line x1="550" y1="50" x2="550" y2="300"/>
    <line x1="250" y1="300" x2="550" y2="300"/>
    <line x1="400" y1="300" x2="400" y2="550"/>
    <line x1="50" y1="350" x2="250" y2="350"/>
    <rect x="80" y="80" width="60" height="40" stroke="#93c5fd" stroke-width="1"/>
    <rect x="660" y="460" width="60" height="40" stroke="#93c5fd" stroke-width="1"/>
  </g>
  <g fill="#ef4444" opacity=".85">
    <rect x="245" y="280" width="10" height="20"/>
    <rect x="545" y="280" width="10" height="20"/>
    <rect x="390" y="295" width="20" height="10"/>
    <rect x="50" y="200" width="10" height="20"/>
    <rect x="740" y="350" width="10" height="20"/>
    <circle cx="100" cy="100" r="8"/>
    <circle cx="700" cy="100" r="8"/>
    <circle cx="100" cy="500" r="8"/>
    <circle cx="700" cy="500" r="8"/>
  </g>
  <g stroke="#22c55e" stroke-width="2" stroke-dasharray="8 4" opacity=".75">
    <path d="M400 300 L400 500 L700 500"/>
    <path d="M400 300 L400 100 L100 100"/>
    <path d="M250 200 L100 200 L100 100"/>
    <path d="M550 200 L700 200 L700 500"/>
  </g>
  <g fill="#93c5fd" font-family="monospace" font-size="11">
    <text x="150" y="180">CORREDOR A</text>
    <text x="350" y="180">CORREDOR B</text>
    <text x="580" y="180">CORREDOR C</text>
    <text x="300" y="430">SALA 1</text>
    <text x="500" y="430">SALA 2</text>
    <text x="560" y="544">PLANTA BAIXA - PAV. TIPO</text>
  </g>
</svg>
